HIERARCHY
ROOT Hips
{
	OFFSET 0.000000 8.830580 0.000000
	CHANNELS 6 Xposition Yposition Zposition Zrotation Yrotation Xrotation 
	JOINT Spine
	{
		OFFSET 0.000000 0.010000 0.000000
		CHANNELS 3 Zrotation Yrotation Xrotation
		JOINT Spine1
		{
			OFFSET 0.000000 2.459130 0.000000
			CHANNELS 3 Zrotation Yrotation Xrotation
			JOINT Neck
			{
				OFFSET 0.000000 2.484630 0.000000
				CHANNELS 3 Zrotation Yrotation Xrotation
				JOINT Head_virtual
				{
					OFFSET 0.000000 0.000000 0.000000
					CHANNELS 3 Zrotation Yrotation Xrotation
					JOINT Head
					{
						OFFSET 0.000000 0.927525 0.000000
						CHANNELS 3 Zrotation Yrotation Xrotation
						End Site
						{
							OFFSET 0.000000 0.000000 0.000000
						}
					}
				}
				JOINT LeftUpArm_virtual
				{
					OFFSET 0.000000 0.000000 0.000000
					CHANNELS 3 Zrotation Yrotation Xrotation
					JOINT LeftUpArm
					{
						OFFSET 1.248820 0.000000 0.000000
						CHANNELS 3 Zrotation Yrotation Xrotation
						JOINT LeftForeArm
						{
							OFFSET 2.597580 0.000000 0.000000
							CHANNELS 3 Zrotation Yrotation Xrotation
							JOINT LeftHand
							{
								OFFSET 2.455420 0.000000 0.000000
								CHANNELS 3 Zrotation Yrotation Xrotation
								End Site
								{
									OFFSET 0.000000 0.000000 0.000000
								}
							}
						}
					}
				}
				JOINT RightUpArm_virtual
				{
					OFFSET -0.000000 -0.000000 -0.000000
					CHANNELS 3 Zrotation Yrotation Xrotation
					JOINT RightUpArm
					{
						OFFSET -1.248820 -0.000000 -0.000000
						CHANNELS 3 Zrotation Yrotation Xrotation
						JOINT RightForeArm
						{
							OFFSET -2.597580 -0.000000 -0.000000
							CHANNELS 3 Zrotation Yrotation Xrotation
							JOINT RightHand
							{
								OFFSET -2.455420 -0.000000 -0.000000
								CHANNELS 3 Zrotation Yrotation Xrotation
								End Site
								{
									OFFSET 0.000000 0.000000 0.000000
								}
							}
						}
					}
				}
			}
		}
	}
	JOINT LeftUpLeg
	{
		OFFSET 1.271939 0.000000 0.000000
		CHANNELS 3 Zrotation Yrotation Xrotation
		JOINT LeftLowLeg
		{
			OFFSET 0.000000 -4.342910 0.000000
			CHANNELS 3 Zrotation Yrotation Xrotation
			JOINT LeftFoot
			{
				OFFSET 0.000000 -4.487670 0.000000
				CHANNELS 3 Zrotation Yrotation Xrotation
				JOINT LeftToeBase
				{
					OFFSET 0.000000 0.000000 1.515070
					CHANNELS 3 Zrotation Yrotation Xrotation
					End Site
					{
						OFFSET 0.000000 0.000000 0.000000
					}
				}
			}
		}
	}
	JOINT RightUpLeg
	{
		OFFSET -1.271939 0.000000 0.000000
		CHANNELS 3 Zrotation Yrotation Xrotation
		JOINT RightLowLeg
		{
			OFFSET 0.000000 -4.342910 0.000000
			CHANNELS 3 Zrotation Yrotation Xrotation
			JOINT RightFoot
			{
				OFFSET 0.000000 -4.487670 0.000000
				CHANNELS 3 Zrotation Yrotation Xrotation
				JOINT RightToeBase
				{
					OFFSET 0.000000 0.000000 1.515070
					CHANNELS 3 Zrotation Yrotation Xrotation
					End Site
					{
						OFFSET 0.000000 0.000000 0.000000
					}
				}
			}
		}
	}
}
MOTION
Frames: 14
Frame Time: 0.041667
-16.855558 9.012245 42.028763 -178.134985 17.591392 6.659009 -6.968189 18.888724 172.649942 -0.696272 20.016706 10.326254 0.000000 0.000000 0.000000 -0.242660 -4.343909 11.959734 -10.651328 17.352147 -108.717980 -20.362700 10.628100 2.925995 -46.425800 9.100840 -17.337900 -180.000000 -56.455002 180.000000 18.166700 29.154200 -61.753899 25.150900 -16.365400 -5.058014 46.484798 -21.511999 -10.864600 180.000000 56.918999 180.000000 -0.605721 -10.096900 -86.799599 -6.286896 2.346602 157.703199 0.000000 0.000000 15.922000 -11.534619 8.186944 12.117215 0.000000 0.000000 -26.708500 -4.763361 -9.870396 174.095477 0.000000 0.000000 22.616199 19.348650 -9.714434 -3.261111 0.000000 0.000000 -24.832060 
-16.905592 9.024725 41.916870 -178.367180 17.692022 6.804403 -7.275731 18.505272 172.155911 -0.923952 20.063795 9.907308 0.000000 0.000000 0.000000 -0.563025 -4.333547 12.555726 -10.421390 17.136554 -108.636429 -20.351400 10.657200 2.593994 -45.731701 8.270170 -21.253700 180.000000 -59.886002 -180.000000 19.278999 31.382299 -61.612801 25.053801 -16.124001 -4.975006 46.453800 -20.729700 -15.002400 -180.000000 58.728996 -180.000000 -0.366127 -12.893300 -88.266800 -5.419725 1.862030 158.010784 0.000000 0.000000 15.950800 -10.284351 7.900033 12.582838 0.000000 0.000000 -26.852600 -4.044779 -9.589585 174.260758 0.000000 0.000000 22.898001 19.937169 -9.313547 -3.056226 0.000000 0.000000 -25.174500 
-16.958413 9.038491 41.800645 -178.630034 18.018421 6.874285 -7.605954 18.010584 171.556282 -1.175311 20.168068 9.718777 0.000000 0.000000 0.000000 -0.810703 -4.339549 13.220577 -10.274202 16.980664 -108.453314 -20.437000 10.669800 2.100006 -44.994202 7.448650 -24.557800 180.000000 -64.042000 -180.000000 20.457399 32.560799 -60.926800 25.027901 -15.763700 -4.984009 46.249901 -19.721701 -18.735100 -180.000000 61.108002 180.000000 -1.657150 -14.895000 -88.055397 -4.382297 0.821012 158.565991 0.000000 0.000000 15.806600 -8.412609 7.283700 13.051859 0.000000 0.000000 -27.310900 -3.227249 -9.344403 174.426532 0.000000 0.000000 23.267099 20.418556 -8.747807 -2.719863 0.000000 0.000000 -25.498400 
-17.014449 9.052635 41.682980 -178.920784 18.457083 6.916814 -8.030899 17.461064 170.918582 -1.606607 20.247109 9.569734 0.000000 0.000000 0.000000 -1.179112 -4.055530 13.940486 -10.070632 16.950308 -108.161794 -20.543699 10.650700 1.675995 -44.240601 6.579490 -27.348801 180.000000 -68.389000 -180.000000 22.478701 34.961498 -59.875599 25.095501 -15.388700 -5.061005 46.012501 -18.533800 -22.189699 180.000000 63.808998 180.000000 -2.667750 -17.120399 -85.626602 -3.396704 0.001869 159.253000 0.000000 0.000000 15.533600 -8.100709 6.770807 12.763241 0.000000 0.000000 -27.013100 -2.331759 -9.239961 174.497172 0.000000 0.000000 23.809099 21.094304 -8.125875 -2.324955 0.000000 0.000000 -25.947000 
-17.072931 9.066868 41.565731 -179.263631 19.034600 6.814928 -8.406825 16.910672 170.439501 -2.127236 20.389339 9.369056 0.000000 0.000000 0.000000 -1.499781 -3.716640 14.874184 -9.881332 17.004009 -107.841459 -20.799500 10.590000 1.467987 -43.356800 5.688170 -29.590700 -180.000000 -72.628998 180.000000 24.466200 38.425201 -58.627300 25.292500 -14.957700 -5.164001 45.674801 -17.298201 -25.200899 180.000000 66.625999 180.000000 -2.975400 -18.975201 -86.355202 -2.541526 -0.173074 160.151006 0.000000 0.000000 15.170400 -7.850982 6.812859 12.403058 0.000000 0.000000 -26.940300 -1.361306 -9.232197 174.576357 0.000000 0.000000 24.498301 21.803911 -7.468031 -1.856755 0.000000 0.000000 -26.481100 
-17.134132 9.078498 41.449156 -179.582800 19.701961 6.630173 -8.872415 16.284917 169.990453 -2.771049 20.566506 9.292754 0.000000 0.000000 0.000000 -1.656686 -3.440456 15.871491 -9.853717 17.167766 -107.382684 -21.125900 10.410300 1.481995 -42.515598 4.731840 -31.549000 180.000000 -76.677002 -180.000000 26.702999 42.173801 -57.256100 25.576300 -14.478100 -5.186005 45.403000 -15.991400 -27.774200 180.000000 69.182999 180.000000 -3.943220 -21.948099 -86.606697 -1.718615 -0.255472 161.116504 0.000000 0.000000 14.831700 -7.896759 6.961743 11.861548 0.000000 0.000000 -26.483900 -0.389080 -9.459806 174.613112 0.000000 0.000000 25.365200 22.655095 -6.795634 -1.391578 0.000000 0.000000 -27.115200 
-17.198442 9.087764 41.333319 -179.869132 20.407036 6.311410 -9.413422 15.642983 169.728636 -3.540335 20.767665 9.086750 0.000000 0.000000 0.000000 -1.584987 -3.429414 17.297506 -10.018931 17.360007 -106.954351 -21.539600 10.055300 1.527008 -41.715401 4.092040 -33.150200 -180.000000 -80.355904 -180.000000 28.407700 45.898701 -54.461300 25.976299 -13.931200 -5.264008 45.152599 -14.920600 -30.036900 -180.000000 71.523003 -180.000000 -4.316290 -24.489901 -87.252403 -0.896846 -0.308460 162.179533 0.000000 0.000000 14.528200 -7.635388 7.243394 11.414402 0.000000 0.000000 -26.391800 0.570587 -9.614499 174.700423 0.000000 0.000000 26.325701 23.258867 -6.184846 -0.783963 0.000000 0.000000 -27.974600 
-17.264270 9.094044 41.217776 179.850527 21.127899 6.064670 -9.994130 14.963471 169.322500 -4.228990 20.951198 9.094832 0.000000 0.000000 0.000000 -1.781681 -3.147930 18.800705 -10.007375 17.503615 -106.506154 -21.966900 9.626650 1.266998 -41.234600 3.912130 -34.107700 -180.000000 -83.435097 180.000000 30.111200 49.362999 -50.910000 26.302299 -13.441600 -5.447998 45.157700 -14.011900 -32.039902 180.000000 73.514000 180.000000 -3.634200 -26.373501 -86.973801 -0.099098 -0.138816 163.200848 0.000000 0.000000 14.120400 -7.311875 7.801208 10.966010 0.000000 0.000000 -26.263500 1.555148 -9.854004 174.603830 0.000000 0.000000 27.442801 23.897537 -5.572418 -0.162066 0.000000 0.000000 -28.936500 
-17.331157 9.096553 41.103968 179.551284 21.806819 5.719685 -10.578531 14.332816 169.036628 -5.019556 21.103029 9.125020 0.000000 0.000000 0.000000 -1.699763 -3.288602 20.283164 -10.416617 17.589857 -106.369646 -22.314100 9.175250 1.045990 -41.070202 4.065510 -34.295200 -180.000000 -85.422600 180.000000 32.982700 53.073399 -46.503399 26.720501 -12.936500 -5.622009 45.210602 -13.287200 -33.123501 180.000000 74.967003 180.000000 -4.939690 -28.451799 -86.900398 0.654829 0.486017 164.238018 0.000000 0.000000 13.800000 -7.044196 8.701154 10.433998 0.000000 0.000000 -26.104700 2.546453 -10.144980 174.495570 0.000000 0.000000 28.705999 24.554174 -4.957400 0.462029 0.000000 0.000000 -29.996900 
-17.398815 9.094730 40.992647 179.229829 22.430518 5.313297 -11.194182 13.728768 168.691439 -5.873514 21.223424 9.580602 0.000000 0.000000 0.000000 -1.565286 -3.412896 21.135439 -10.932824 17.696177 -106.454944 -22.702299 8.562380 1.058014 -41.214802 4.525400 -34.347000 -180.000000 -86.516800 180.000000 34.915798 54.561401 -44.787300 27.344601 -12.383300 -5.966003 45.253201 -12.889200 -33.874599 180.000000 75.769997 180.000000 -5.611330 -29.940701 -87.588203 1.477963 0.963825 165.177855 0.000000 0.000000 13.719000 -6.543489 9.515663 9.867360 0.000000 0.000000 -25.941800 3.562566 -10.348958 174.314744 0.000000 0.000000 30.157900 25.322848 -4.235831 1.086368 0.000000 0.000000 -31.073099 
-17.465359 9.088342 40.886741 178.869699 23.019405 4.773949 -11.748167 13.234030 168.485393 -6.759903 21.337343 10.303107 0.000000 0.000000 0.000000 -1.331607 -3.576207 21.098868 -11.426025 17.817476 -106.650279 -23.241501 7.842720 1.467987 -41.566101 5.062150 -34.636299 -180.000000 -86.906601 180.000000 35.608002 53.571999 -44.861801 28.189800 -11.800400 -6.118011 45.289001 -12.521800 -34.403301 -180.000000 76.017998 -180.000000 -6.074900 -30.835800 -87.473297 2.438575 0.656193 166.097069 0.000000 0.000000 13.770600 -6.644118 9.405571 9.185373 0.000000 0.000000 -25.468400 4.597389 -10.419464 174.085277 0.000000 0.000000 31.848301 25.997315 -3.465775 1.734474 0.000000 0.000000 -32.188299 
-17.529810 9.078467 40.786322 178.455109 23.521822 4.108140 -12.199542 12.851788 168.325069 -7.587636 21.491491 11.466967 0.000000 0.000000 0.000000 -1.076774 -3.568331 19.874622 -11.635326 18.012802 -106.804858 -23.833900 7.052730 2.290009 -42.133202 5.412090 -34.808399 180.000000 -86.727699 -180.000000 36.392502 51.422901 -45.386200 29.146900 -11.213800 -5.901001 45.494598 -12.088800 -34.887600 180.000000 75.735001 180.000000 -6.997040 -31.382401 -86.937302 3.480635 -0.206585 167.015214 0.000000 0.000000 13.896500 -6.556913 8.804326 8.653089 0.000000 0.000000 -25.336800 5.637446 -10.435734 173.788154 0.000000 0.000000 33.798100 26.758576 -2.747748 2.504181 0.000000 0.000000 -33.723600 
-17.593507 9.065375 40.695928 177.941880 23.971878 3.281202 -12.535260 12.547344 168.387229 -8.553379 21.696667 12.814236 0.000000 0.000000 0.000000 -0.701335 -3.346561 17.409934 -11.529711 18.434997 -106.723105 -24.306499 6.230310 3.096008 -42.894402 5.743190 -34.642300 -180.000000 -86.059799 180.000000 36.438499 49.567001 -47.509399 30.240000 -10.615500 -5.790985 45.761200 -11.931100 -34.908901 -180.000000 75.072998 -180.000000 -7.773930 -31.540899 -85.423798 4.552211 -1.081783 167.985827 0.000000 0.000000 14.011800 -6.151127 8.225282 8.320236 0.000000 0.000000 -25.439200 6.757791 -10.288135 173.317308 0.000000 0.000000 36.178299 27.228385 -2.033806 3.338505 0.000000 0.000000 -35.115200 
-17.656087 9.049491 40.615942 177.339016 24.359573 2.290118 -12.670580 12.385496 168.666561 -9.489791 21.966803 14.302218 0.000000 0.000000 0.000000 -0.049656 -3.238369 14.100986 -11.230462 18.998531 -106.411178 -24.510700 5.400550 4.183014 -44.030300 5.662350 -34.221001 180.000000 -85.004303 -180.000000 36.978401 48.559898 -48.815201 31.253500 -9.930680 -5.460999 46.135200 -11.927100 -34.279499 180.000000 74.127998 180.000000 -10.387100 -31.810101 -83.590401 5.627292 -1.657968 168.997637 0.000000 0.000000 14.157600 -5.900192 7.917391 7.949268 0.000000 0.000000 -25.443700 7.948740 -9.984525 172.675198 0.000000 0.000000 38.952499 27.779075 -1.288279 4.356004 0.000000 0.000000 -36.552401 
